<svg width="36" height="33" viewBox="0 0 36 33" fill="none" xmlns="http://www.w3.org/2000/svg">
<path fill-rule="evenodd" clip-rule="evenodd" d="M17.9999 0.833344C8.4376 0.833344 0.683472 8.02466 0.683472 16.8966C0.683472 23.9936 5.64516 30.0148 12.5256 32.1389C13.3909 32.2875 13.7087 31.7903 13.7087 31.3661C13.7087 30.9833 13.6926 29.7177 13.6852 28.3755C8.86776 29.3472 7.85122 26.4802 7.85122 26.4802C7.06349 24.6238 5.92851 24.1298 5.92851 24.1298C4.35737 23.1328 6.04695 23.1533 6.04695 23.1533C7.78578 23.2666 8.70137 24.8089 8.70137 24.8089C10.2459 27.2643 12.7523 26.5544 13.7405 26.1439C13.8963 25.106 14.3447 24.3971 14.84 23.996C10.9937 23.5901 6.9505 22.2125 6.9505 16.0574C6.9505 14.3039 7.62695 12.871 8.7347 11.7461C8.5549 11.3412 7.96217 9.70741 8.90271 7.49489C8.90271 7.49489 10.3569 7.06336 13.6657 9.14167C15.047 8.78577 16.5283 8.60722 18 8.60089C19.4716 8.60692 20.9541 8.7857 22.338 9.14167C25.6431 7.06336 27.0952 7.49489 27.0952 7.49489C28.0378 9.70741 27.4451 11.3412 27.2653 11.7461C28.3756 12.871 29.0471 14.3039 29.0471 16.0574C29.0471 22.2273 24.9961 23.5855 21.1402 23.9832C21.7613 24.4817 22.3147 25.4593 22.3147 26.9579C22.3147 29.1072 22.295 30.837 22.295 31.3661C22.295 31.7938 22.6064 32.2947 23.4842 32.137C30.3611 30.0106 35.3164 23.9914 35.3164 16.8967C35.3164 8.02459 27.5635 0.833344 18 0.833344" fill="white"/>
<path d="M7.24226 23.8966C7.20405 23.9766 7.06871 24.0005 6.94549 23.9455C6.8195 23.8931 6.74935 23.7843 6.78999 23.7042C6.82738 23.6222 6.96264 23.5994 7.0883 23.6542C7.21389 23.7066 7.2855 23.8165 7.24226 23.8966ZM7.94374 24.6223C7.86116 24.6933 7.6994 24.6603 7.59015 24.5481C7.4766 24.4361 7.45563 24.2861 7.53943 24.2143C7.62462 24.1433 7.78117 24.1765 7.8944 24.2885C8.00796 24.4018 8.03007 24.5505 7.94374 24.6223ZM8.62645 25.5473C8.52037 25.6159 8.34659 25.5518 8.23929 25.409C8.13322 25.2659 8.13322 25.0946 8.24173 25.026C8.34903 24.9574 8.52021 25.0192 8.62889 25.1608C8.73472 25.306 8.73472 25.4773 8.62645 25.5473ZM9.56171 26.4412C9.46685 26.5382 9.2647 26.5122 9.11668 26.3797C8.96532 26.2502 8.92322 26.0664 9.01808 25.9693C9.1144 25.872 9.31769 25.8993 9.46677 26.0307C9.61715 26.16 9.66267 26.3451 9.56171 26.4412ZM10.8522 26.9601C10.8099 27.086 10.6156 27.1429 10.4194 27.0894C10.2235 27.0344 10.0954 26.8873 10.1349 26.7601C10.1757 26.6332 10.3713 26.5739 10.5688 26.6311C10.7644 26.6859 10.8929 26.8322 10.8522 26.9602V26.9601ZM12.2694 27.0563C12.2743 27.1888 12.1079 27.2987 11.9021 27.301C11.695 27.3055 11.5273 27.1981 11.525 27.0677C11.525 26.9339 11.6879 26.8254 11.8946 26.8219C12.1005 26.8181 12.2694 26.9249 12.2694 27.0563ZM13.5881 26.8482C13.6127 26.9771 13.4696 27.1099 13.2652 27.1453C13.0642 27.1796 12.878 27.0995 12.8525 26.9716C12.8276 26.8392 12.973 26.7065 13.174 26.6721C13.3787 26.6392 13.562 26.7169 13.5881 26.8482Z" fill="white"/>
</svg>
